<?xml version="1.0" encoding="utf-8"?>
<!-- Generator: Adobe Illustrator 19.2.1, SVG Export Plug-In . SVG Version: 6.00 Build 0)  -->
<svg version="1.1" id="Layer_1" xmlns="http://www.w3.org/2000/svg" xmlns:xlink="http://www.w3.org/1999/xlink" x="0px" y="0px"
	 viewBox="0 0 959.5 180.5" style="enable-background:new 0 0 959.5 180.5;" xml:space="preserve">
<style type="text/css">
	.st0{fill:#FFD651;}
	.st1{enable-background:new    ;}
	.st2{fill:#FFFFFF;}
	.st3{fill:none;stroke:#FFFFFF;stroke-width:8;stroke-miterlimit:10;}
	.st4{fill:none;stroke:#FFD651;stroke-width:8;stroke-miterlimit:10;}
</style>
<title>wordmark</title>
<path class="st0" d="M958.3,90.2c0,0,5.6,35.5-6.8,34s-14.5-2.6-29.5-0.9s-84.2,7.6-94.5,8s-58.8,1.4-61.3,1.6s-10.4,0.1-27.1,9.8
	s-41.4,28.2-54.9,31.7s-32,6.5-46.7,6.2S494.6,178,494.6,178l-124.9-1.4c0,0-24.7,2-31.7-5s-13.2-15-15.3-25.6s-3.3-35.7-3.3-35.7
	l-0.1-20"/>
<path class="st0" d="M958.3,90.2c0,0,5.6-35.5-6.8-34s-14.5,2.6-29.5,0.9s-84.2-7.5-94.5-7.9s-58.8-1.4-61.3-1.6s-10.4-0.1-27.1-9.8
	S697.7,9.6,684.2,6.2s-32-6.5-46.7-6.1S494.6,2.5,494.6,2.5L369.7,4c0,0-24.7-2-31.7,5s-13.2,15-15.2,25.6s-3.2,35.7-3.2,35.7
	l-0.1,20"/>
<g class="st1">
	<path class="st2" d="M351.2,77.1c0,12,30.1,7.5,30.1,25.8c0,10.4-8.6,15.1-19.4,15.1c-9.4,0-16.6-4.5-19.6-8.2
		c-0.6-0.8-0.8-1.4-0.8-2.2c0-1.8,1.5-3.3,3.3-3.3c0.7,0,1.6,0.2,2.5,1.1c3.5,3.5,8.1,5.6,14.5,5.6c6.5,0,12.1-2.2,12.1-8.1
		c0-11.8-30.1-7.1-30.1-25.8c0-9.5,7.8-13.8,17.5-13.8c7.8,0,13.8,2.6,17.4,7.3c0.3,0.5,0.8,1.1,0.8,2.2c0,1.8-1.5,3.3-3.3,3.3
		c-0.6,0-1.5-0.1-2.4-1c-3.1-3-6.5-4.8-12.5-4.8C356.2,70.2,351.2,71.8,351.2,77.1z"/>
	<path class="st2" d="M400.9,67.5v3.7c2.2-3.9,7.9-8,15.5-8c14.9,0,23.9,8.7,23.9,27.4c0,18.8-9,27.6-23.9,27.6
		c-7.7,0-13.1-4.1-15.5-8V136c0,1.9-1.7,3.7-3.7,3.7s-3.7-1.7-3.7-3.7V67.5c0-2.1,1.7-3.7,3.7-3.7S400.9,65.4,400.9,67.5z
		 M416.5,111.5c10.5,0,16.5-6.6,16.5-20.9c0-14.3-6.2-20.8-16.7-20.8c-8.5,0-15.5,5.9-15.5,20.8
		C400.7,105.3,407.6,111.5,416.5,111.5z"/>
	<path class="st2" d="M496.4,90.6c0,18.8-9.1,27.6-24,27.6c-14.7,0-24-8.8-24-27.6c0-18.8,9.3-27.4,24-27.4
		C487.3,63.1,496.4,71.8,496.4,90.6z M489,90.6c0-14.4-6.1-20.8-16.6-20.8s-16.6,6.4-16.6,20.8c0,14.6,6.1,20.9,16.6,20.9
		S489,105.2,489,90.6z"/>
	<path class="st2" d="M510.7,52.7c0-1.9,1.7-3.7,3.7-3.7c2.1,0,3.7,1.7,3.7,3.7v12h7.4c1.9,0,3.4,1.5,3.4,3.4s-1.5,3.4-3.4,3.4H518
		v31.6c0,4.9,2.7,7.5,6.6,7.5c1.9,0,3.5,1.5,3.5,3.4c0,1.9-1.6,3.4-3.5,3.4c-9,0-13.9-6.1-13.9-14.4V71.6h-4.5
		c-1.9,0-3.4-1.5-3.4-3.4s1.5-3.4,3.4-3.4h4.5V52.7z"/>
	<path class="st2" d="M542.6,52.7c0-1.9,1.7-3.7,3.7-3.7c2.1,0,3.7,1.7,3.7,3.7v12h7.4c1.9,0,3.4,1.5,3.4,3.4s-1.5,3.4-3.4,3.4h-7.4
		v31.6c0,4.9,2.7,7.5,6.6,7.5c1.9,0,3.5,1.5,3.5,3.4c0,1.9-1.6,3.4-3.5,3.4c-9,0-13.9-6.1-13.9-14.4V71.6h-4.5
		c-1.9,0-3.4-1.5-3.4-3.4s1.5-3.4,3.4-3.4h4.5V52.7z"/>
	<path class="st2" d="M591.8,63.1c18.3,0,21.8,14.5,21.8,22.3c0,3.3,0,7.3-4.6,7.3h-33.4c0,11.3,6.5,18.6,17.3,18.6
		c6.6,0,10.5-2.5,13.7-4.9c0.7-0.5,1.1-0.7,2.1-0.7c1.8,0,3.3,1.5,3.3,3.3c0,1.3-0.6,1.9-1.3,2.6c-1.7,1.7-7.7,6.4-17.8,6.4
		c-15.2,0-24.7-8.3-24.7-27.6C568.2,73,576.9,63.1,591.8,63.1z M591.8,69.8c-9.9,0-15.4,6.4-16.1,16.6h30.8
		C606.4,78.1,603.6,69.8,591.8,69.8z"/>
	<path class="st2" d="M632.3,72.5c2.3-5.3,8-9.1,15.9-9.1c1.9,0,3.5,1.6,3.5,3.5s-1.6,3.5-3.5,3.5c-10.5,0-15.9,7.3-15.9,17.8v25.6
		c0,2.1-1.6,3.7-3.7,3.7c-2.1,0-3.7-1.6-3.7-3.7V67.5c0-2.1,1.6-3.7,3.7-3.7c2.1,0,3.7,1.6,3.7,3.7V72.5z"/>
</g>
<g class="st1">
	<path class="st0" d="M79.2,87.2c0,21.4-9.9,31.5-26.8,31.5c-14.9,0-25.6-8.5-25.6-25.7V28.2c0-2.4,1.8-4.2,4.2-4.2
		c2.4,0,4.2,1.8,4.2,4.2v36.2c3-4.2,9.4-8.5,17.8-8.5C69.8,55.9,79.2,65.8,79.2,87.2z M35.2,93c0,12.4,7.2,18.2,17.2,18.2
		c12,0,18.4-7.6,18.4-23.9c0-16.1-6.5-23.8-18.4-23.8c-12.3,0-17.2,11.5-17.2,11.5V93z"/>
	<path class="st0" d="M143.3,87.2c0,21.4-10.5,31.5-27.4,31.5c-16.9,0-27.4-10.1-27.4-31.5c0-21.4,10.6-31.4,27.4-31.4
		C132.8,55.9,143.3,65.8,143.3,87.2z M134.8,87.2c0-16.5-6.9-23.8-18.9-23.8c-12,0-18.9,7.3-18.9,23.8c0,16.7,6.9,23.9,18.9,23.9
		C127.9,111.1,134.8,104,134.8,87.2z"/>
	<path class="st0" d="M159.6,44c0-2.2,2-4.2,4.2-4.2c2.4,0,4.2,2,4.2,4.2v13.7h8.5c2.2,0,3.9,1.7,3.9,3.9c0,2.2-1.7,3.9-3.9,3.9H168
		v36.1c0,5.6,3.1,8.6,7.6,8.6c2.2,0,4.1,1.7,4.1,3.9c0,2.2-1.8,3.9-4.1,3.9c-10.3,0-15.9-6.9-15.9-16.5V65.5h-5.1
		c-2.2,0-3.9-1.7-3.9-3.9c0-2.2,1.7-3.9,3.9-3.9h5.1V44z"/>
	<path class="st0" d="M196.1,44c0-2.2,2-4.2,4.2-4.2c2.4,0,4.2,2,4.2,4.2v13.7h8.5c2.2,0,3.9,1.7,3.9,3.9c0,2.2-1.7,3.9-3.9,3.9
		h-8.5v36.1c0,5.6,3.1,8.6,7.6,8.6c2.2,0,4.1,1.7,4.1,3.9c0,2.2-1.8,3.9-4.1,3.9c-10.3,0-15.9-6.9-15.9-16.5V65.5H191
		c-2.2,0-3.9-1.7-3.9-3.9c0-2.2,1.7-3.9,3.9-3.9h5.1V44z"/>
	<path class="st0" d="M237.6,28.2v74.6c0,5.2,1.7,7.4,5.2,7.4c2.1,0,3.9,1.7,3.9,3.9c0,2.2-1.8,3.9-3.9,3.9
		c-8.8,0-13.6-5.2-13.6-15.3V28.2c0-2.2,2-4.2,4.2-4.2C235.8,24,237.6,25.9,237.6,28.2z"/>
	<path class="st0" d="M280.9,55.9c20.9,0,25,16.6,25,25.5c0,3.8,0,8.4-5.2,8.4h-38.2c0,12.9,7.4,21.3,19.7,21.3
		c7.6,0,12-2.9,15.7-5.6c0.8-0.5,1.3-0.8,2.4-0.8c2.1,0,3.8,1.7,3.8,3.8c0,1.4-0.7,2.2-1.4,3c-2,2-8.8,7.3-20.4,7.3
		c-17.4,0-28.2-9.5-28.2-31.5C254,67.1,263.9,55.9,280.9,55.9z M280.9,63.4c-11.4,0-17.6,7.3-18.4,18.9h35.2
		C297.6,73,294.3,63.4,280.9,63.4z"/>
</g>
<line class="st3" x1="685.2" y1="124.8" x2="320.8" y2="124.8"/>
<line class="st4" x1="0.1" y1="129.2" x2="320.8" y2="124.8"/>
</svg>
